<svg width="333" height="35" viewBox="0 0 333 35" fill="none" xmlns="http://www.w3.org/2000/svg">
<path d="M23 14.8C23.64 14.8 24.2667 14.7333 24.88 14.6C25.4933 14.44 26.04 14.2 26.52 13.88C27.0267 13.56 27.4267 13.1467 27.72 12.64C28.0133 12.1067 28.16 11.48 28.16 10.76C28.16 10.0133 28.0133 9.38667 27.72 8.88C27.4533 8.34667 27.08 7.92 26.6 7.6C26.12 7.25333 25.5733 7.01333 24.96 6.88C24.3467 6.72 23.7067 6.64 23.04 6.64H5.92V14.8H23ZM23.04 8.88C23.3333 8.88 23.6533 8.90667 24 8.96C24.3467 9.01333 24.6667 9.12 24.96 9.28C25.2533 9.41333 25.4933 9.6 25.68 9.84C25.8667 10.08 25.96 10.3867 25.96 10.76C25.96 11.1333 25.8533 11.44 25.64 11.68C25.4533 11.8933 25.2 12.08 24.88 12.24C24.5867 12.3733 24.2667 12.4667 23.92 12.52C23.5733 12.5733 23.2667 12.6 23 12.6H8.16V8.88H23.04ZM25.16 25.36C25.8 25.36 26.44 25.2933 27.08 25.16C27.72 25 28.28 24.76 28.76 24.44C29.2667 24.0933 29.6667 23.6667 29.96 23.16C30.28 22.6267 30.44 21.9867 30.44 21.24C30.44 20.5733 30.3067 19.9867 30.04 19.48C29.7733 18.9733 29.4133 18.56 28.96 18.24C28.5067 17.8933 27.9867 17.64 27.4 17.48C26.84 17.2933 26.2533 17.2 25.64 17.2H5.92V25.36H25.16ZM25.64 19.4C25.9067 19.4 26.1867 19.44 26.48 19.52C26.8 19.5733 27.08 19.68 27.32 19.84C27.5867 19.9733 27.8 20.16 27.96 20.4C28.12 20.64 28.2 20.92 28.2 21.24C28.2 21.64 28.0933 21.96 27.88 22.2C27.6933 22.44 27.44 22.6267 27.12 22.76C26.8267 22.8933 26.4933 22.9867 26.12 23.04C25.7733 23.0933 25.4533 23.12 25.16 23.12H8.16V19.4H25.64ZM23.04 4.2C24.1333 4.2 25.1467 4.32 26.08 4.56C27.0133 4.8 27.8133 5.18667 28.48 5.72C29.1733 6.25333 29.7067 6.93333 30.08 7.76C30.48 8.58666 30.6933 9.58667 30.72 10.76C30.72 11.4 30.5733 12.0133 30.28 12.6C30.0133 13.16 29.68 13.6533 29.28 14.08C28.88 14.5067 28.4533 14.8533 28 15.12C27.5467 15.36 27.16 15.4933 26.84 15.52C27.56 15.5733 28.28 15.76 29 16.08C29.72 16.3733 30.36 16.7733 30.92 17.28C31.5067 17.7867 31.9867 18.3733 32.36 19.04C32.7333 19.7067 32.92 20.44 32.92 21.24C32.92 22.44 32.72 23.4667 32.32 24.32C31.92 25.1467 31.36 25.8267 30.64 26.36C29.9467 26.8667 29.12 27.24 28.16 27.48C27.2267 27.6933 26.2267 27.8 25.16 27.8H3.52V4.2H23.04ZM25.16 30.04C26.6 30.04 27.9333 29.88 29.16 29.56C30.3867 29.2133 31.44 28.6933 32.32 28C33.2 27.28 33.8933 26.3733 34.4 25.28C34.9067 24.16 35.16 22.8133 35.16 21.24C35.16 19.9067 34.7867 18.72 34.04 17.68C33.32 16.64 32.2267 15.8133 30.76 15.2C31.08 14.9333 31.3733 14.6267 31.64 14.28C31.9067 13.9067 32.1333 13.52 32.32 13.12C32.5067 12.72 32.6533 12.32 32.76 11.92C32.8667 11.4933 32.92 11.1067 32.92 10.76C32.92 9.24 32.68 7.93333 32.2 6.84C31.72 5.72 31.04 4.8 30.16 4.08C29.3067 3.36 28.2667 2.82667 27.04 2.48C25.84 2.13333 24.5067 1.96 23.04 1.96H1.28V30.04H25.16ZM0.28 0.96H23.04C25.44 0.96 27.6133 1.36 29.56 2.16C31.5067 2.96 33.32 4.36 35 6.36C35.56 7.02667 36.0667 7.85333 36.52 8.84C36.9733 9.8 37.2933 10.8133 37.48 11.88C37.6667 12.92 37.6667 13.9467 37.48 14.96C37.32 15.9733 36.8933 16.84 36.2 17.56C36.8933 17.8267 37.48 18.28 37.96 18.92C38.44 19.5333 38.8267 20.2133 39.12 20.96C39.44 21.7067 39.6667 22.4667 39.8 23.24C39.96 24.0133 40.04 24.68 40.04 25.24C40.04 26.9733 39.76 28.4533 39.2 29.68C38.6667 30.88 37.92 31.8667 36.96 32.64C36 33.44 34.8533 34.0133 33.52 34.36C32.1867 34.7333 30.7333 34.92 29.16 34.92H4.4L0.28 31.04V0.96ZM68.5116 8.88C68.8316 8.88 69.1649 8.90667 69.5116 8.96C69.8582 9.01333 70.1782 9.10666 70.4716 9.24C70.7649 9.37333 71.0049 9.56 71.1916 9.8C71.4049 10.04 71.5116 10.36 71.5116 10.76C71.5116 11.1333 71.4049 11.44 71.1916 11.68C70.9782 11.92 70.7116 12.1067 70.3916 12.24C70.0982 12.3733 69.7649 12.4667 69.3916 12.52C69.0449 12.5733 68.7382 12.6 68.4716 12.6H53.6716V8.88H68.5116ZM68.4716 14.8C69.1116 14.8 69.7382 14.7333 70.3516 14.6C70.9916 14.44 71.5649 14.2 72.0716 13.88C72.5782 13.56 72.9782 13.1467 73.2716 12.64C73.5916 12.1067 73.7516 11.48 73.7516 10.76C73.7516 10.0133 73.6049 9.37333 73.3116 8.84C73.0182 8.30667 72.6182 7.88 72.1116 7.56C71.6316 7.24 71.0716 7.01333 70.4316 6.88C69.8182 6.72 69.1782 6.64 68.5116 6.64H51.4716V14.8H68.4716ZM72.1116 16.6C71.7382 16.8133 71.3249 16.9733 70.8716 17.08C70.4182 17.1867 69.9916 17.2933 69.5916 17.4C71.0849 19.16 72.5782 20.8933 74.0716 22.6C75.5916 24.3067 77.1116 26.04 78.6316 27.8H75.3916L66.1516 17.2H51.4716V27.8H48.9916V4.2H68.5116C69.6049 4.2 70.6182 4.32 71.5516 4.56C72.5116 4.8 73.3249 5.18667 73.9916 5.72C74.6849 6.25333 75.2182 6.93333 75.5916 7.76C75.9916 8.58666 76.1916 9.58667 76.1916 10.76C76.1916 12.2267 75.8582 13.44 75.1916 14.4C74.5249 15.3333 73.5116 16.0667 72.1516 16.6H72.1116ZM78.4316 10.76C78.4316 9.24 78.1916 7.93333 77.7116 6.84C77.2316 5.72 76.5516 4.8 75.6716 4.08C74.7916 3.36 73.7382 2.82667 72.5116 2.48C71.3116 2.13333 69.9782 1.96 68.5116 1.96H46.8316V30.04H53.6716V19.4H65.1116L74.3116 30.04H83.5116L73.4316 18.48C76.7649 17.0133 78.4316 14.44 78.4316 10.76ZM45.8316 31.04V0.96H68.5116C69.5516 0.96 70.5516 1.04 71.5116 1.2C72.4716 1.33333 73.4316 1.62667 74.3916 2.08C75.3782 2.53333 76.3916 3.18666 77.4316 4.04C78.4982 4.89333 79.6316 6.02667 80.8316 7.44C81.6049 8.21333 82.2049 9.25333 82.6316 10.56C83.0849 11.84 83.3116 13.24 83.3116 14.76C83.3116 16.52 82.9249 18.08 82.1516 19.44C81.4049 20.8 80.3116 21.9067 78.8716 22.76C79.6982 23.72 80.5649 24.72 81.4716 25.76C82.3782 26.8 83.2849 27.8533 84.1916 28.92C85.0982 29.96 85.9916 30.9867 86.8716 32C87.7782 33.04 88.6316 34.0133 89.4316 34.92H77.9116L73.8716 31.04L68.0316 24.28H58.5516V34.92H49.9516L45.8316 31.04ZM132.826 6.64C131.253 6.64 129.786 6.81333 128.426 7.16C127.093 7.48 125.933 8.01333 124.946 8.76C123.959 9.48 123.173 10.44 122.586 11.64C122.026 12.84 121.746 14.2933 121.746 16C121.746 17.7333 122.026 19.2 122.586 20.4C123.173 21.5733 123.959 22.5333 124.946 23.28C125.933 24.0267 127.093 24.56 128.426 24.88C129.786 25.2 131.253 25.36 132.826 25.36H137.186C139.053 25.36 140.866 25.08 142.626 24.52C144.413 23.9333 145.946 22.92 147.226 21.48L149.786 23.08C149.039 24.12 148.186 24.96 147.226 25.6C146.266 26.2133 145.239 26.68 144.146 27C143.053 27.32 141.906 27.5333 140.706 27.64C139.533 27.7467 138.359 27.8 137.186 27.8H132.826C130.879 27.8 129.066 27.6 127.386 27.2C125.733 26.7733 124.293 26.0933 123.066 25.16C121.866 24.2 120.919 22.9733 120.226 21.48C119.559 19.9867 119.226 18.16 119.226 16C119.226 13.84 119.559 12.0133 120.226 10.52C120.919 9.02667 121.866 7.81333 123.066 6.88C124.293 5.92 125.733 5.24 127.386 4.84C129.066 4.41333 130.879 4.2 132.826 4.2H137.186C138.359 4.2 139.533 4.25333 140.706 4.36C141.906 4.46667 143.053 4.68 144.146 5C145.239 5.32 146.266 5.8 147.226 6.44C148.186 7.05333 149.039 7.88 149.786 8.92L147.226 10.52C145.946 9.08 144.413 8.08 142.626 7.52C140.866 6.93333 139.053 6.64 137.186 6.64H132.826ZM137.186 8.88C139.106 8.88 140.866 9.24 142.466 9.96C144.066 10.6533 145.426 11.8 146.546 13.4L152.906 9.64C151.999 8.09333 150.986 6.82667 149.866 5.84C148.746 4.82667 147.519 4.04 146.186 3.48C144.879 2.89333 143.466 2.49333 141.946 2.28C140.453 2.06667 138.866 1.96 137.186 1.96H132.826C130.506 1.96 128.373 2.22667 126.426 2.76C124.506 3.26666 122.839 4.08 121.426 5.2C120.039 6.32 118.946 7.77333 118.146 9.56C117.373 11.32 116.986 13.4667 116.986 16C116.986 18.5333 117.373 20.6933 118.146 22.48C118.946 24.24 120.039 25.68 121.426 26.8C122.839 27.92 124.506 28.7467 126.426 29.28C128.373 29.7867 130.506 30.04 132.826 30.04H137.186C138.866 30.04 140.453 29.9333 141.946 29.72C143.466 29.5067 144.879 29.12 146.186 28.56C147.519 27.9733 148.746 27.1867 149.866 26.2C150.986 25.2133 151.999 23.9333 152.906 22.36L146.546 18.6C145.426 20.2 144.066 21.36 142.466 22.08C140.866 22.7733 139.106 23.12 137.186 23.12H132.826C131.626 23.12 130.493 23 129.426 22.76C128.359 22.52 127.426 22.1333 126.626 21.6C125.826 21.04 125.186 20.3067 124.706 19.4C124.226 18.4933 123.986 17.36 123.986 16C123.986 14.6667 124.226 13.5467 124.706 12.64C125.186 11.7333 125.826 11 126.626 10.44C127.453 9.88 128.399 9.48 129.466 9.24C130.533 9 131.653 8.88 132.826 8.88H137.186ZM122.986 30.56C121.466 29.2267 120.253 27.9867 119.346 26.84C118.439 25.6667 117.733 24.52 117.226 23.4C116.719 22.2533 116.386 21.08 116.226 19.88C116.066 18.68 115.986 17.3867 115.986 16C115.986 13.28 116.399 10.9733 117.226 9.08C118.053 7.16 119.213 5.6 120.706 4.4C122.199 3.2 123.973 2.33333 126.026 1.8C128.106 1.24 130.373 0.96 132.826 0.96H137.186C138.706 0.96 140.159 1.02667 141.546 1.16C142.959 1.26667 144.359 1.58667 145.746 2.12C147.133 2.65333 148.546 3.45333 149.986 4.52C151.426 5.58667 152.973 7.06667 154.626 8.96C154.893 9.25333 155.186 9.6 155.506 10C155.826 10.4 156.133 10.8267 156.426 11.28C156.719 11.7333 157.013 12.2 157.306 12.68C157.599 13.1333 157.866 13.56 158.106 13.96L150.306 18.56L147.266 15.52C146.333 14.9067 145.359 14.4667 144.346 14.2C143.333 13.9067 142.279 13.76 141.186 13.76H136.826C135.759 13.76 134.746 13.8667 133.786 14.08C132.826 14.2933 131.973 14.64 131.226 15.12C130.506 15.6 129.933 16.24 129.506 17.04C129.079 17.84 128.866 18.8267 128.866 20C128.866 20.64 128.919 21.1733 129.026 21.6C129.586 21.7867 130.186 21.92 130.826 22C131.466 22.08 132.133 22.12 132.826 22.12H137.186C138.946 22.12 140.599 21.7467 142.146 21C143.719 20.2533 145.106 19.0133 146.306 17.28L154.306 22L158.106 26.04C157.039 27.8533 155.879 29.3333 154.626 30.48C153.399 31.6267 152.079 32.52 150.666 33.16C149.253 33.8267 147.759 34.28 146.186 34.52C144.613 34.7867 142.946 34.92 141.186 34.92H136.826C135.466 34.92 134.119 34.8267 132.786 34.64C131.479 34.48 130.213 34.2133 128.986 33.84C127.786 33.4933 126.666 33.04 125.626 32.48C124.613 31.9467 123.733 31.3067 122.986 30.56ZM168.294 4.2V25.36H190.894V27.8H165.894V4.2H168.294ZM193.094 30.04V23.12H170.534V1.96H163.694V30.04H193.094ZM162.694 0.96H171.534L175.414 5.08V22.12H194.094L197.974 26.24V34.92H166.814L162.694 31.04V0.96ZM220.239 25.36C221.786 25.36 223.226 25.2 224.559 24.88C225.919 24.5333 227.093 24 228.079 23.28C229.093 22.5333 229.879 21.5733 230.439 20.4C230.999 19.2 231.279 17.7333 231.279 16C231.279 14.2933 230.986 12.84 230.399 11.64C229.839 10.44 229.066 9.48 228.079 8.76C227.093 8.01333 225.919 7.48 224.559 7.16C223.226 6.81333 221.786 6.64 220.239 6.64H215.839C214.266 6.64 212.799 6.81333 211.439 7.16C210.106 7.48 208.946 8.01333 207.959 8.76C206.973 9.48 206.186 10.44 205.599 11.64C205.039 12.84 204.759 14.2933 204.759 16C204.759 17.7333 205.039 19.2 205.599 20.4C206.186 21.5733 206.973 22.5333 207.959 23.28C208.946 24.0267 210.106 24.56 211.439 24.88C212.799 25.2 214.266 25.36 215.839 25.36H220.239ZM215.839 23.12C214.639 23.12 213.506 23 212.439 22.76C211.373 22.52 210.439 22.1333 209.639 21.6C208.839 21.04 208.199 20.3067 207.719 19.4C207.239 18.4933 206.999 17.36 206.999 16C206.999 14.6667 207.239 13.5467 207.719 12.64C208.199 11.7333 208.839 11 209.639 10.44C210.466 9.88 211.413 9.48 212.479 9.24C213.546 9 214.666 8.88 215.839 8.88H220.239C221.413 8.88 222.533 9 223.599 9.24C224.666 9.48 225.599 9.88 226.399 10.44C227.199 11 227.839 11.7333 228.319 12.64C228.799 13.5467 229.039 14.6667 229.039 16C229.039 17.3333 228.799 18.4533 228.319 19.36C227.866 20.2667 227.239 21 226.439 21.56C225.639 22.12 224.706 22.52 223.639 22.76C222.573 23 221.439 23.12 220.239 23.12H215.839ZM202.239 16C202.239 13.84 202.573 12.0133 203.239 10.52C203.933 9.02667 204.879 7.81333 206.079 6.88C207.306 5.92 208.746 5.24 210.399 4.84C212.079 4.41333 213.893 4.2 215.839 4.2H220.239C222.186 4.2 223.986 4.41333 225.639 4.84C227.293 5.26667 228.719 5.94667 229.919 6.88C231.146 7.81333 232.093 9.02667 232.759 10.52C233.453 12.0133 233.799 13.84 233.799 16C233.799 18.16 233.453 19.9867 232.759 21.48C232.093 22.9733 231.146 24.1867 229.919 25.12C228.719 26.0533 227.293 26.7333 225.639 27.16C223.986 27.5867 222.186 27.8 220.239 27.8H215.839C213.893 27.8 212.079 27.6 210.399 27.2C208.746 26.7733 207.306 26.0933 206.079 25.16C204.879 24.2 203.933 22.9733 203.239 21.48C202.573 19.9867 202.239 18.16 202.239 16ZM199.999 16C199.999 18.5333 200.386 20.6933 201.159 22.48C201.959 24.24 203.053 25.68 204.439 26.8C205.853 27.92 207.519 28.7467 209.439 29.28C211.386 29.7867 213.519 30.04 215.839 30.04H220.239C222.559 30.04 224.679 29.7867 226.599 29.28C228.519 28.7467 230.173 27.92 231.559 26.8C232.973 25.68 234.066 24.24 234.839 22.48C235.613 20.6933 235.999 18.5333 235.999 16C235.999 13.4667 235.613 11.32 234.839 9.56C234.066 7.77333 232.973 6.32 231.559 5.2C230.173 4.08 228.519 3.26666 226.599 2.76C224.679 2.22667 222.559 1.96 220.239 1.96H215.839C213.519 1.96 211.386 2.22667 209.439 2.76C207.519 3.26666 205.853 4.08 204.439 5.2C203.053 6.32 201.959 7.77333 201.159 9.56C200.386 11.32 199.999 13.4667 199.999 16ZM198.999 16C198.999 13.28 199.413 10.9733 200.239 9.08C201.066 7.16 202.226 5.6 203.719 4.4C205.213 3.2 206.986 2.33333 209.039 1.8C211.119 1.24 213.386 0.96 215.839 0.96H220.239C221.786 0.96 223.239 1.05333 224.599 1.24C225.986 1.4 227.346 1.76 228.679 2.32C230.013 2.85333 231.333 3.62667 232.639 4.64C233.973 5.62667 235.346 6.96 236.759 8.64C237.959 9.84 238.946 11.4267 239.719 13.4C240.493 15.3733 240.879 17.5733 240.879 20C240.879 22.6933 240.466 24.9867 239.639 26.88C238.839 28.7733 237.693 30.3067 236.199 31.48C234.733 32.68 232.973 33.5467 230.919 34.08C228.893 34.64 226.666 34.92 224.239 34.92H219.839C217.119 34.92 214.586 34.6133 212.239 34C209.893 33.3867 207.959 32.3333 206.439 30.84C204.919 29.5067 203.679 28.2533 202.719 27.08C201.759 25.88 200.999 24.6933 200.439 23.52C199.906 22.3467 199.533 21.1467 199.319 19.92C199.106 18.6933 198.999 17.3867 198.999 16ZM220.239 22.12C221.279 22.12 222.266 22.0267 223.199 21.84C224.159 21.6267 224.999 21.28 225.719 20.8C226.439 20.32 226.999 19.6933 227.399 18.92C227.826 18.12 228.039 17.1467 228.039 16C228.039 15.36 227.959 14.7733 227.799 14.24C226.706 13.92 225.519 13.76 224.239 13.76H219.839C218.773 13.76 217.759 13.8667 216.799 14.08C215.839 14.2933 214.986 14.64 214.239 15.12C213.519 15.6 212.946 16.24 212.519 17.04C212.093 17.84 211.879 18.8267 211.879 20C211.879 20.64 211.933 21.1733 212.039 21.6C212.599 21.7867 213.199 21.92 213.839 22C214.479 22.08 215.146 22.12 215.839 22.12H220.239ZM249.678 4.2V16C249.678 17.7333 249.958 19.2 250.518 20.4C251.078 21.5733 251.852 22.5333 252.838 23.28C253.852 24 255.025 24.5333 256.358 24.88C257.692 25.2 259.145 25.36 260.718 25.36H265.118C266.665 25.36 268.105 25.2 269.438 24.88C270.798 24.5333 271.972 24 272.958 23.28C273.972 22.5333 274.758 21.5733 275.318 20.4C275.905 19.2 276.198 17.7333 276.198 16V4.2H278.718V16C278.718 18.16 278.372 19.9867 277.678 21.48C276.985 22.9733 276.025 24.2 274.798 25.16C273.598 26.0933 272.172 26.7733 270.518 27.2C268.865 27.6 267.065 27.8 265.118 27.8H260.718C258.772 27.8 256.958 27.6 255.278 27.2C253.625 26.7733 252.185 26.0933 250.958 25.16C249.758 24.2 248.812 22.9733 248.118 21.48C247.452 19.9867 247.118 18.16 247.118 16V4.2H249.678ZM244.918 16C244.918 18.5333 245.305 20.6933 246.078 22.48C246.852 24.24 247.932 25.68 249.318 26.8C250.732 27.92 252.398 28.7467 254.318 29.28C256.265 29.7867 258.398 30.04 260.718 30.04H265.118C267.438 30.04 269.558 29.7867 271.478 29.28C273.425 28.7467 275.092 27.92 276.478 26.8C277.892 25.68 278.985 24.24 279.758 22.48C280.532 20.6933 280.918 18.5333 280.918 16V1.96H273.958V16C273.958 17.36 273.718 18.4933 273.238 19.4C272.758 20.3067 272.118 21.04 271.318 21.6C270.518 22.1333 269.585 22.52 268.518 22.76C267.452 23 266.318 23.12 265.118 23.12H260.718C259.518 23.12 258.385 23 257.318 22.76C256.252 22.52 255.318 22.12 254.518 21.56C253.718 21 253.078 20.2667 252.598 19.36C252.145 18.4533 251.918 17.3333 251.918 16V1.96H244.918V16ZM243.918 0.96H252.918L256.798 5.08V20C256.798 20.2933 256.798 20.5733 256.798 20.84C256.825 21.1067 256.865 21.36 256.918 21.6C258.038 21.9467 259.305 22.12 260.718 22.12H265.118C266.158 22.12 267.145 22.0267 268.078 21.84C269.038 21.6267 269.878 21.28 270.598 20.8C271.318 20.32 271.892 19.6933 272.318 18.92C272.745 18.1467 272.958 17.1733 272.958 16V0.96H281.918L285.798 5.08V20C285.798 22.6933 285.385 24.9867 284.558 26.88C283.732 28.7733 282.585 30.3067 281.118 31.48C279.652 32.68 277.892 33.5467 275.838 34.08C273.785 34.64 271.545 34.92 269.118 34.92H264.718C263.358 34.92 262.038 34.8533 260.758 34.72C259.505 34.5867 258.305 34.36 257.158 34.04C256.038 33.7467 254.998 33.3467 254.038 32.84C253.078 32.3333 252.225 31.7067 251.478 30.96C249.958 29.6533 248.705 28.4133 247.718 27.24C246.758 26.04 245.998 24.84 245.438 23.64C244.878 22.44 244.478 21.2267 244.238 20C244.025 18.7467 243.918 17.4133 243.918 16V0.96ZM312.232 25.36C313.779 25.36 315.232 25.2 316.592 24.88C317.952 24.56 319.126 24.0267 320.112 23.28C321.126 22.5333 321.912 21.5733 322.472 20.4C323.059 19.2 323.352 17.7333 323.352 16C323.352 14.2667 323.059 12.8133 322.472 11.64C321.912 10.44 321.126 9.46667 320.112 8.72C319.126 7.97333 317.952 7.44 316.592 7.12C315.232 6.8 313.779 6.64 312.232 6.64H297.992V25.36H312.232ZM312.232 8.88C313.432 8.88 314.566 9 315.632 9.24C316.726 9.45333 317.672 9.84 318.472 10.4C319.299 10.96 319.952 11.6933 320.432 12.6C320.939 13.5067 321.192 14.64 321.192 16C321.192 17.36 320.952 18.5067 320.472 19.44C319.992 20.3467 319.339 21.08 318.512 21.64C317.686 22.1733 316.726 22.56 315.632 22.8C314.566 23.0133 313.432 23.12 312.232 23.12H300.152V8.88H312.232ZM312.232 4.2C314.179 4.2 315.979 4.41333 317.632 4.84C319.286 5.24 320.726 5.92 321.952 6.88C323.179 7.81333 324.139 9.02667 324.832 10.52C325.526 12.0133 325.872 13.84 325.872 16C325.872 18.16 325.526 19.9867 324.832 21.48C324.139 22.9733 323.179 24.2 321.952 25.16C320.726 26.0933 319.286 26.7733 317.632 27.2C315.979 27.6 314.179 27.8 312.232 27.8H295.552V4.2H312.232ZM312.232 30.04C314.552 30.04 316.672 29.7867 318.592 29.28C320.539 28.7733 322.206 27.96 323.592 26.84C325.006 25.72 326.099 24.2667 326.872 22.48C327.672 20.6933 328.072 18.5333 328.072 16C328.072 13.4667 327.672 11.3067 326.872 9.52C326.099 7.73333 325.006 6.28 323.592 5.16C322.206 4.04 320.539 3.22666 318.592 2.72C316.672 2.21333 314.552 1.96 312.232 1.96H293.352V30.04H312.232ZM292.352 0.96H312.232C313.752 0.96 315.219 1.04 316.632 1.2C318.046 1.33333 319.432 1.65333 320.792 2.16C322.179 2.66666 323.552 3.41333 324.912 4.4C326.299 5.38666 327.712 6.72 329.152 8.4C330.352 9.6 331.286 11.24 331.952 13.32C332.619 15.3733 332.952 17.6 332.952 20C332.952 22.6933 332.539 24.9867 331.712 26.88C330.886 28.7733 329.726 30.3067 328.232 31.48C326.766 32.68 325.006 33.5467 322.952 34.08C320.899 34.64 318.659 34.92 316.232 34.92H296.472L292.352 31.04V0.96ZM305.032 22.12H312.232C313.299 22.12 314.312 22.0267 315.272 21.84C316.232 21.6267 317.072 21.2933 317.792 20.84C318.539 20.36 319.126 19.7333 319.552 18.96C319.979 18.16 320.192 17.1733 320.192 16C320.192 15.4133 320.126 14.8267 319.992 14.24C318.819 13.92 317.566 13.76 316.232 13.76H305.032V22.12Z" fill="black"/>
</svg>
